<?xml version="1.0" encoding="utf-8" ?>
<svg baseProfile="tiny" height="384" version="1.2" width="1024" xmlns="http://www.w3.org/2000/svg" xmlns:ev="http://www.w3.org/2001/xml-events" xmlns:xlink="http://www.w3.org/1999/xlink"><defs /><polyline fill="none" points="454,374 454,375 451,378 450,378 449,377 450,378 452,378 454,376" stroke="black" stroke-width="1" /><polyline fill="none" points="62,369 62,370" stroke="black" stroke-width="1" /><polyline fill="none" points="595,337 595,339 596,339 597,338 597,337" stroke="black" stroke-width="1" /><polyline fill="none" points="127,315 126,316" stroke="black" stroke-width="1" /><polyline fill="none" points="358,289 358,294 357,295 357,300 356,301 356,302 355,303 355,304 353,306 352,306 351,307 350,307 349,308 348,308 347,309 341,309 342,309 343,310 344,309 345,309 346,310 349,310 350,311 351,311 356,316 356,318 357,319 357,322 358,323 358,331 358,320 359,319 359,317 361,315 361,314 363,312 364,312 365,311 366,311 367,310 372,310 373,309 374,309 368,309 367,308 366,308 365,307 364,307 360,303 360,302 359,301 359,299 358,298" stroke="black" stroke-width="1" /><polyline fill="none" points="667,277 667,280 670,280 670,277" stroke="black" stroke-width="1" /><polyline fill="none" points="256,268 256,271 257,272 260,272 260,271 261,270 261,269 260,269 259,268" stroke="black" stroke-width="1" /><polyline fill="none" points="54,239 55,240" stroke="black" stroke-width="1" /><polyline fill="none" points="57,237 59,239" stroke="black" stroke-width="1" /><polyline fill="none" points="381,198 380,199 379,199 379,202 380,203 381,203 383,201 383,200" stroke="black" stroke-width="1" /><polyline fill="none" points="520,191 520,208 519,209 519,216 518,217 518,221 517,222 517,225 516,226 516,228 515,229 514,229 513,228 512,228 508,224 507,224 503,220 505,222 505,223 507,225 507,226 508,227 508,228 509,229 509,230 510,231 510,232 511,233 511,235 510,236 507,236 506,237 503,237 502,238 498,238 497,239 493,239 492,240 484,240 492,240 493,241 497,241 498,242 502,242 503,243 506,243 507,244 509,244 510,245 510,248 509,249 509,250 508,251 508,252 506,254 506,255 502,259 504,257 505,257 508,254 509,254 511,252 512,252 514,250 515,250 516,251 516,252 517,253 517,256 518,257 518,262 519,263 519,269 520,270 520,283 520,276 521,275 521,264 522,263 522,256 523,255 523,250 524,249 525,249 527,251 528,251 531,254 532,254 535,257 536,257 538,259 535,256 535,255 533,253 533,252 532,251 532,250 531,249 531,248 530,247 530,245 531,244 533,244 534,243 537,243 538,242 542,242 543,241 548,241 549,240 555,240 551,240 550,239 542,239 541,238 537,238 536,237 532,237 531,236 530,236 529,235 529,234 530,233 530,232 531,231 531,230 532,229 532,228 533,227 533,226 534,225 534,224 536,222 536,221 538,219 531,226 530,226 526,230 525,229 525,228 524,227 524,225 523,224 523,221 522,220 522,217 521,216 521,209 520,208" stroke="black" stroke-width="1" /><polyline fill="none" points="674,128 674,143 673,144 673,148 672,149 672,150 667,155 666,155 665,156 662,156 661,157 650,157 657,157 658,158 662,158 663,159 665,159 666,160 667,160 668,161 669,161 670,162 670,163 672,165 672,167 673,168 673,171 674,172 674,188 674,173 675,172 675,168 676,167 676,166 677,165 677,164 681,160 682,160 683,159 685,159 686,158 690,158 691,157 699,157 687,157 686,156 683,156 682,155 681,155 677,151 677,150 676,149 676,148 675,147 675,144 674,143" stroke="black" stroke-width="1" /><polyline fill="none" points="163,128 163,139 162,140 162,144 161,145 161,148 160,149 160,151 159,152 159,154 158,155 158,156 157,157 157,158 156,159 156,160 154,162 154,163 150,167 149,167 147,169 146,169 144,171 142,171 141,172 140,172 139,173 136,173 135,174 131,174 130,175 121,175 130,175 131,176 134,176 135,177 138,177 139,178 141,178 142,179 143,179 144,180 145,180 147,182 148,182 150,184 151,184 154,187 154,188 155,189 155,190 157,192 157,193 158,194 158,195 159,196 159,197 160,198 160,201 161,202 161,205 162,206 162,210 163,211 163,222 163,220 164,219 164,208 165,207 165,204 166,203 166,199 167,198 167,196 168,195 168,194 169,193 169,192 170,191 170,190 178,182 179,182 181,180 182,180 183,179 185,179 186,178 188,178 189,177 191,177 192,176 196,176 197,175 204,175 196,175 195,174 191,174 190,173 188,173 187,172 185,172 184,171 183,171 182,170 181,170 180,169 179,169 178,168 177,168 171,162 171,161 169,159 169,158 168,157 168,156 167,155 167,153 166,152 166,149 165,148 165,145 164,144 164,138 163,137" stroke="black" stroke-width="1" /><polyline fill="none" points="310,105 309,106 310,107 312,107 313,106 312,105 313,106 312,107 310,107 309,106" stroke="black" stroke-width="1" /><polyline fill="none" points="745,103 745,104" stroke="black" stroke-width="1" /><polyline fill="none" points="743,103 743,104" stroke="black" stroke-width="1" /><polyline fill="none" points="486,93 487,93" stroke="black" stroke-width="1" /><polyline fill="none" points="82,67 82,68 81,69 81,70 80,71 80,73 81,74 81,75 83,77 83,75 84,74 85,74 87,72 87,70 84,67" stroke="black" stroke-width="1" /><polyline fill="none" points="575,58 575,59 576,60 575,59" stroke="black" stroke-width="1" /><polyline fill="none" points="372,57 372,66 371,67 371,70 370,71 370,72 365,77 363,77 362,78 354,78 356,78 357,79 362,79 363,80 364,80 365,81 366,81 370,85 370,87 371,88 371,90 372,91 372,101 372,91 373,90 373,87 374,86 374,85 378,81 379,81 380,80 381,80 382,79 389,79 388,78 382,78 381,77 379,77 374,72 374,71 373,70 373,68 372,67" stroke="black" stroke-width="1" /><polyline fill="none" points="578,56 579,57 579,60 579,57" stroke="black" stroke-width="1" /><polyline fill="none" points="132,40 131,41 132,42 133,41" stroke="black" stroke-width="1" /></svg>