<?xml version="1.0" encoding="utf-8" ?>
<svg baseProfile="tiny" height="384" version="1.2" width="1024" xmlns="http://www.w3.org/2000/svg" xmlns:ev="http://www.w3.org/2001/xml-events" xmlns:xlink="http://www.w3.org/1999/xlink"><defs /><polyline fill="none" points="223,331 222,332 222,333 223,334 223,335 224,335 225,336 227,334 227,332 226,331" stroke="black" stroke-width="1" /><polyline fill="none" points="80,285 80,295 79,296 79,298 78,299 78,301 77,302 77,303 76,304 76,305 72,309 71,309 70,310 69,310 68,311 66,311 65,312 58,312 61,312 62,313 66,313 67,314 68,314 69,315 71,315 77,321 77,322 78,323 78,325 79,326 79,328 80,329 80,341 80,330 81,329 81,326 82,325 82,323 83,322 83,321 89,315 90,315 91,314 93,314 94,313 97,313 98,312 103,312 98,312 97,311 93,311 92,310 91,310 90,309 89,309 84,304 84,303 83,302 83,301 82,300 82,299 81,298 81,295 80,294" stroke="black" stroke-width="1" /><polyline fill="none" points="421,245 433,245" stroke="black" stroke-width="1" /><polyline fill="none" points="417,245 418,245" stroke="black" stroke-width="1" /><polyline fill="none" points="442,244 452,244" stroke="black" stroke-width="1" /><polyline fill="none" points="408,242 409,242" stroke="black" stroke-width="1" /><polyline fill="none" points="431,203 437,203" stroke="black" stroke-width="1" /><polyline fill="none" points="426,203 429,203" stroke="black" stroke-width="1" /><polyline fill="none" points="758,51 757,52 754,52 752,54 751,54 750,55 750,56 749,57 749,58 748,59 748,65 749,66 749,67 750,68 750,69 752,71 753,71 754,72 755,72 756,73 762,73 763,72 764,72 768,68 768,67 769,66 769,58 768,57 768,56 765,53 764,53 763,52 761,52 760,51" stroke="black" stroke-width="1" /><polyline fill="none" points="947,13 946,14 945,14 941,18 941,19 940,20 940,22 939,23 939,25 940,26 940,28 941,29 941,30 945,34 946,34 947,35 954,35 955,34 956,34 957,33 958,33 961,30 961,29 962,28 962,20 961,19 961,18 958,15 957,15 956,14 955,14 954,13" stroke="black" stroke-width="1" /><polyline fill="none" points="602,0 595,7 594,7 593,8 593,9 586,16 585,16 585,17 584,18 583,18 583,19 565,37 565,38 561,42 561,43 558,46 558,47 557,48 557,49 556,50 556,51 555,52 555,53 554,54 554,55 553,56 553,58 552,59 552,61 551,62 551,65 550,66 550,122 551,123 550,124 550,139 549,140 549,144 548,145 548,147 547,148 547,151 546,152 546,153 545,154 545,156 544,157 544,158 543,159 543,161 542,162 542,163 541,164 541,165 540,166 540,167 539,168 539,169 538,170 538,171 536,173 536,174 535,175 535,176 533,178 533,179 530,182 530,183 525,188 525,189 515,199 514,199 504,209 503,209 493,219 492,219 482,229 481,229 480,230 479,230 477,232 476,232 475,233 474,233 473,234 472,234 471,235 470,235 469,236 467,236 466,237 464,237 463,238 462,238 461,239 458,239 457,240 454,240 453,241 449,241 448,242 411,242 448,242 449,241 453,241 454,240 457,240 458,239 462,239 463,238 464,238 465,237 466,237 467,236 469,238 468,239 467,239 466,240 464,240 463,241 461,241 460,242 456,242 455,243 454,243 456,243 457,242 460,242 461,241 463,241 464,240 466,240 467,239 468,239 469,238 471,238 472,237 473,237 474,236 475,236 476,235 477,235 478,234 479,234 480,233 481,233 483,231 484,231 493,222 494,222 504,212 505,212 513,204 514,204 528,190 528,189 533,184 533,183 535,181 535,180 537,178 537,177 539,175 539,174 540,173 540,172 541,171 541,170 542,169 542,168 543,167 543,166 544,165 544,164 545,163 545,162 546,161 546,159 547,158 547,157 548,156 548,154 549,153 549,151 550,150 550,147 551,146 551,143 552,142 552,135 553,134 553,96 552,95 552,79 553,78 553,64 554,63 554,61 555,60 555,58 556,57 556,56 557,55 557,54 558,53 558,52 559,51 559,50 560,49 560,48 563,45 563,44 570,37 570,36 606,0 605,1 604,1 603,2 602,1" stroke="black" stroke-width="1" /><polyline fill="none" points="548,0 525,23 525,24 521,28 521,29 519,31 519,32 518,33 518,34 517,35 517,36 515,38 515,39 514,40 514,42 513,43 513,44 512,45 512,47 511,48 511,50 510,51 510,56 509,57 509,98 510,99 510,100 509,101 509,103 510,104 509,105 510,106 510,107 509,108 509,128 508,129 508,136 507,137 507,140 506,141 506,144 505,145 505,147 504,148 504,150 503,151 503,152 502,153 502,154 501,155 501,156 495,162 495,163 481,177 480,177 480,178 479,179 478,179 476,181 476,182 473,185 472,185 468,189 467,189 465,191 464,191 463,192 462,192 461,193 460,193 459,194 458,194 457,195 456,195 455,196 453,196 452,197 450,197 449,198 446,198 445,199 442,199 441,200 432,200 441,200 442,199 446,199 447,198 450,198 451,199 450,200 449,200 448,201 444,201 443,202 439,202 443,202 444,201 448,201 449,200 452,200 453,199 455,199 456,198 457,198 458,197 460,197 461,196 462,196 464,194 465,194 466,193 467,193 469,191 470,191 473,188 474,188 499,163 499,162 503,158 503,157 504,156 504,155 505,154 505,153 506,152 506,151 507,150 507,147 508,146 508,143 509,142 509,139 510,138 510,133 511,132 511,121 512,120 512,79 511,78 512,77 512,76 511,75 511,65 512,64 512,54 513,53 513,50 514,49 514,47 515,46 515,45 516,44 516,42 517,41 517,40 518,39 518,38 520,36 520,35 521,34 521,33 523,31 523,30 527,26 527,25 552,0" stroke="black" stroke-width="1" /></svg>