<?xml version="1.0" encoding="utf-8" ?>
<svg baseProfile="tiny" height="384" version="1.2" width="1024" xmlns="http://www.w3.org/2000/svg" xmlns:ev="http://www.w3.org/2001/xml-events" xmlns:xlink="http://www.w3.org/1999/xlink"><defs /><polyline fill="none" points="841,308 840,309 838,309 837,310 836,310 832,314 832,315 831,316 831,317 830,318 830,320 829,321 829,326 830,327 830,330 831,331 831,332 836,337 837,337 838,338 840,338 841,339 848,339 849,338 851,338 852,337 853,337 858,332 858,331 859,330 859,328 860,327 860,319 859,318 859,317 858,316 858,315 856,313 856,312 855,312 853,310 852,310 851,309 849,309 848,308" stroke="black" stroke-width="1" /><polyline fill="none" points="293,285 293,292 292,293 292,295 291,296 291,297 290,298 290,299 286,303 285,303 284,304 282,304 281,305 277,305 276,306 275,306 280,306 281,307 283,307 284,308 285,308 287,310 288,310 289,311 289,312 291,314 291,315 292,316 292,318 293,319 293,327 294,326 294,319 295,318 295,316 296,315 296,314 297,313 297,312 300,309 301,309 302,308 303,308 304,307 306,307 307,306 313,306 311,306 310,305 306,305 305,304 303,304 302,303 301,303 296,298 296,297 295,296 295,294 294,293 294,290 293,289" stroke="black" stroke-width="1" /><polyline fill="none" points="861,238 860,239 860,241 861,242 863,242 865,240 864,239 864,238" stroke="black" stroke-width="1" /><polyline fill="none" points="58,220 58,222 59,223 60,223 61,222 61,221 61,222 60,223 59,223 58,222 58,221 59,220" stroke="black" stroke-width="1" /><polyline fill="none" points="462,211 462,221 461,222 461,224 460,225 460,226 459,227 459,228 458,229 458,230 454,234 453,234 451,236 449,236 448,237 445,237 444,238 438,238 445,238 446,239 448,239 449,240 451,240 452,241 453,241 459,247 459,248 460,249 460,250 461,251 461,254 462,255 462,263 462,262 463,261 463,253 464,252 464,250 465,249 465,248 467,246 467,245 469,243 470,243 472,241 473,241 474,240 475,240 476,239 479,239 480,238 486,238 480,238 479,237 477,237 476,236 474,236 473,235 472,235 466,229 466,228 465,227 465,226 464,225 464,223 463,222 463,218 462,217" stroke="black" stroke-width="1" /><polyline fill="none" points="420,131 421,131" stroke="black" stroke-width="1" /><polyline fill="none" points="102,122 102,129 101,130 101,133 100,134 100,135 99,136 99,137 98,138 98,139 97,140 96,140 94,142 93,142 92,143 91,143 90,144 88,144 87,145 81,145 87,145 88,146 90,146 91,147 93,147 99,153 99,154 100,155 100,156 101,157 101,161 102,162 102,171 102,159 103,158 103,156 104,155 104,154 105,153 105,152 109,148 110,148 111,147 112,147 113,146 115,146 116,145 122,145 117,145 116,144 113,144 112,143 111,143 110,142 109,142 104,137 104,135 103,134 103,133 102,132" stroke="black" stroke-width="1" /><polyline fill="none" points="298,88 298,90 297,91 297,97 296,98 296,100 295,101 295,103 289,109 288,109 287,110 285,110 284,111 281,111 280,112 276,112 283,112 284,113 286,113 287,114 288,114 289,115 290,115 294,119 294,120 295,121 295,122 296,123 296,125 297,126 297,130 298,131 298,136 298,126 299,125 299,123 300,122 300,121 302,119 302,118 305,115 306,115 307,114 308,114 309,113 311,113 312,112 319,112 316,112 315,111 311,111 310,110 308,110 307,109 306,109 301,104 301,103 300,102 300,100 299,99 299,97 298,96" stroke="black" stroke-width="1" /><polyline fill="none" points="59,60 58,61 57,61 58,61" stroke="black" stroke-width="1" /><polyline fill="none" points="504,56 504,62 503,63 503,64 500,67 499,67 498,68 492,68 494,68 495,69 499,69 500,70 501,70 503,72 503,73 504,74 504,79 505,80 505,83 505,75 506,74 506,73 509,70 510,70 511,69 513,69 514,68 517,68 511,68 510,67 509,67 506,64 506,63 505,62 505,56" stroke="black" stroke-width="1" /><polyline fill="none" points="778,0 731,47 731,48 713,66 712,66 710,68 710,69 702,77 702,78 700,80 700,81 699,82 699,83 697,85 697,87 696,88 696,89 695,90 695,91 694,92 694,94 693,95 693,97 692,98 692,101 691,102 691,105 690,106 690,243 691,244 691,247 690,248 691,249 690,250 690,251 691,252 691,253 690,254 691,255 691,269 690,270 690,277 689,278 689,282 688,283 688,286 687,287 687,289 686,290 686,291 685,292 685,293 684,294 684,295 683,296 683,297 682,298 682,299 681,300 681,301 679,303 679,304 676,307 676,308 671,313 671,314 621,364 621,365 619,367 618,367 617,368 617,369 603,383 604,383 605,382 606,383 607,383 631,359 631,358 673,316 673,315 678,310 678,309 681,306 681,305 683,303 683,302 684,301 684,300 685,299 685,298 686,297 686,296 687,295 687,294 688,293 688,292 689,291 689,289 690,288 690,286 691,285 691,282 692,281 692,276 693,275 693,205 692,204 693,203 693,191 692,190 693,189 693,188 692,187 693,186 693,182 692,181 693,180 693,176 692,175 692,170 693,169 693,167 692,166 692,165 693,164 692,163 692,162 693,161 693,160 692,159 692,112 693,111 693,105 694,104 694,102 695,101 695,98 696,97 696,94 697,93 697,92 698,91 698,90 699,89 699,88 700,87 700,86 701,85 701,84 702,83 702,82 705,79 705,78 717,66 717,65 720,62 721,62 721,61 722,60 723,60 723,59 782,0 781,0 780,1 779,0" stroke="black" stroke-width="1" /><polyline fill="none" points="714,0 695,19 694,19 694,20 688,26 687,26 687,27 681,33 680,33 679,34 679,35 675,39 674,39 673,40 673,41 657,57 657,58 655,60 655,61 654,62 654,63 653,64 653,65 652,66 652,67 651,68 651,70 650,71 650,73 649,74 649,77 648,78 648,85 647,86 647,107 648,108 647,109 648,110 647,111 647,114 648,115 648,268 647,269 647,272 646,273 646,277 645,278 645,280 644,281 644,283 643,284 643,285 642,286 642,287 641,288 641,289 639,291 639,292 636,295 636,296 629,303 629,304 623,310 622,310 616,316 616,317 583,350 582,350 579,353 579,354 578,355 577,355 568,364 568,365 567,366 566,366 549,383 550,383 551,382 552,383 553,383 568,368 569,368 569,367 570,366 571,366 571,365 573,363 574,363 580,357 580,356 581,355 582,355 582,354 583,353 584,353 588,349 588,348 589,347 590,347 633,304 633,303 638,298 638,297 641,294 641,293 643,291 643,290 644,289 644,288 645,287 645,286 646,285 646,284 647,283 647,280 648,279 648,277 649,276 649,272 650,271 650,266 651,265 651,224 650,223 650,80 651,79 651,76 652,75 652,73 653,72 653,70 654,69 654,68 655,67 655,66 656,65 656,64 657,63 657,62 659,60 659,59 718,0" stroke="black" stroke-width="1" /><polyline fill="none" points="384,0 383,1 383,3 382,4 382,5 377,10 376,10 375,11 373,11 372,12 365,12 370,12 371,13 373,13 374,14 376,14 378,16 379,16 380,17 380,18 382,20 382,21 383,22 383,25 384,26 384,34 384,26 385,25 385,22 386,21 386,20 387,19 387,18 389,16 390,16 392,14 393,14 394,13 397,13 398,12 402,12 397,12 396,11 393,11 392,10 391,10 387,6 387,5 386,4 386,3 385,2 385,0" stroke="black" stroke-width="1" /></svg>