<?xml version="1.0" encoding="utf-8" ?>
<svg baseProfile="tiny" height="384" version="1.2" width="1024" xmlns="http://www.w3.org/2000/svg" xmlns:ev="http://www.w3.org/2001/xml-events" xmlns:xlink="http://www.w3.org/1999/xlink"><defs /><polyline fill="none" points="384,376 384,383 385,383 384,382" stroke="black" stroke-width="1" /><polyline fill="none" points="876,363 875,364 873,364 875,364 876,363 877,363" stroke="black" stroke-width="1" /><polyline fill="none" points="871,362 870,363 867,363 866,364 815,364 814,365 806,365 805,366 802,366 801,367 799,367 798,368 796,368 795,369 794,369 792,371 791,371 779,383 780,383 781,382 782,383 783,383 794,372 795,372 796,371 797,371 798,370 800,370 801,369 803,369 804,368 809,368 810,367 819,367 820,366 821,367 822,366 868,366 869,365 871,365 869,365 868,366 858,366 857,365 858,364 866,364 867,363 870,363 871,362 873,362" stroke="black" stroke-width="1" /><polyline fill="none" points="544,362 542,364 543,365 542,364 544,362 545,363" stroke="black" stroke-width="1" /><polyline fill="none" points="887,357 886,358" stroke="black" stroke-width="1" /><polyline fill="none" points="890,351 885,356 884,356 882,358 881,358 880,359 879,359 878,360 877,360 876,361 875,361 876,361 877,360 878,360 879,359 880,359 881,358 882,358 884,356 885,356 889,352 890,352 891,351" stroke="black" stroke-width="1" /><polyline fill="none" points="897,348 896,349" stroke="black" stroke-width="1" /><polyline fill="none" points="898,343 893,348 893,349 893,348 897,344 898,344" stroke="black" stroke-width="1" /><polyline fill="none" points="904,337 901,340" stroke="black" stroke-width="1" /><polyline fill="none" points="774,331 773,332 774,331 775,331" stroke="black" stroke-width="1" /><polyline fill="none" points="773,329 772,330 771,330 770,331 769,331 767,333 766,333 763,336 762,336 715,383 719,383 765,337 766,337 769,334 770,334 771,333 770,334 769,334 768,335 767,335 766,334 768,332 769,332 771,330 772,330" stroke="black" stroke-width="1" /><polyline fill="none" points="927,314 906,335" stroke="black" stroke-width="1" /><polyline fill="none" points="939,302 936,305" stroke="black" stroke-width="1" /><polyline fill="none" points="580,301 579,302 579,305 582,305 583,304 582,305 580,305 579,304 579,302 580,301 581,301 582,302 581,301" stroke="black" stroke-width="1" /><polyline fill="none" points="945,296 942,299" stroke="black" stroke-width="1" /><polyline fill="none" points="948,293 947,294" stroke="black" stroke-width="1" /><polyline fill="none" points="951,290 950,291 950,292 950,291" stroke="black" stroke-width="1" /><polyline fill="none" points="180,280 179,281 181,283 182,283 183,282 183,281 182,280" stroke="black" stroke-width="1" /><polyline fill="none" points="970,272 966,276" stroke="black" stroke-width="1" /><polyline fill="none" points="975,267 972,270" stroke="black" stroke-width="1" /><polyline fill="none" points="982,260 981,261" stroke="black" stroke-width="1" /><polyline fill="none" points="990,252 984,258" stroke="black" stroke-width="1" /><polyline fill="none" points="994,248 993,249" stroke="black" stroke-width="1" /><polyline fill="none" points="340,242 340,250 339,251 339,253 338,254 338,255 334,259 333,259 332,260 330,260 329,261 326,261 325,262 323,262 328,262 329,263 331,263 332,264 333,264 334,265 335,265 337,267 337,268 338,269 338,270 339,271 339,272 340,273 340,282 340,279 341,278 341,272 342,271 342,270 343,269 343,268 347,264 348,264 349,263 351,263 352,262 358,262 356,262 355,261 351,261 350,260 348,260 343,255 343,254 342,253 342,251 341,250 341,246 340,245" stroke="black" stroke-width="1" /><polyline fill="none" points="1002,240 999,243" stroke="black" stroke-width="1" /><polyline fill="none" points="1008,234 1007,235" stroke="black" stroke-width="1" /><polyline fill="none" points="1020,222 1019,223" stroke="black" stroke-width="1" /><polyline fill="none" points="96,189 96,197 95,198 95,200 94,201 94,202 93,203 93,204 92,205 92,206 88,210 87,210 86,211 85,211 84,212 82,212 81,213 76,213 75,214 74,214 81,214 82,215 84,215 85,216 86,216 87,217 88,217 92,221 92,222 93,223 93,224 94,225 94,226 95,227 95,230 96,231 96,241 96,234 97,233 97,228 98,227 98,226 99,225 99,224 100,223 100,222 105,217 106,217 107,216 108,216 109,215 111,215 112,214 118,214 117,214 116,213 111,213 110,212 109,212 108,211 107,211 106,210 105,210 100,205 100,204 99,203 99,201 98,200 98,199 97,198 97,192 96,191" stroke="black" stroke-width="1" /><polyline fill="none" points="785,164 784,165 780,165 779,166 778,166 772,172 772,173 771,174 771,176 770,177 770,184 771,185 771,187 772,188 772,189 773,190 773,191 777,195 778,195 779,196 781,196 782,197 788,197 789,196 791,196 792,195 793,195 794,194 795,194 798,191 798,190 799,189 799,188 800,187 800,186 801,185 801,176 800,175 800,174 799,173 799,172 798,171 798,170 796,168 795,168 793,166 791,166 790,165 787,165 786,164" stroke="black" stroke-width="1" /><polyline fill="none" points="602,156 602,166 601,167 601,169 600,170 600,171 599,172 599,173 597,175 596,175 594,177 593,177 592,178 589,178 588,179 583,179 589,179 590,180 592,180 593,181 595,181 599,185 599,186 600,187 600,188 601,189 601,191 602,192 602,202 602,194 603,193 603,190 604,189 604,187 606,185 606,184 608,182 609,182 610,181 611,181 612,180 614,180 615,179 621,179 616,179 615,178 613,178 612,177 611,177 610,176 609,176 605,172 605,171 604,170 604,168 603,167 603,164 602,163" stroke="black" stroke-width="1" /><polyline fill="none" points="914,150 913,151 910,151 909,152 908,152 907,153 907,154 906,155 906,156 905,157 905,161 906,162 906,163 910,167 913,167 914,168 915,167 917,167 918,166 919,166 920,165 920,164 921,163 921,162 922,161 922,157 921,156 921,155 920,154 920,153 919,152 918,152 917,151 915,151" stroke="black" stroke-width="1" /><polyline fill="none" points="54,120 55,121 56,121 56,120 55,121" stroke="black" stroke-width="1" /><polyline fill="none" points="713,96 712,97 711,97 707,101 707,102 706,103 706,111 707,112 707,113 711,117 713,117 714,118 715,118 716,119 717,119 718,118 720,118 721,117 722,117 726,113 726,112 727,111 727,102 726,101 726,100 724,98 723,98 722,97 721,97 720,96" stroke="black" stroke-width="1" /><polyline fill="none" points="141,94 140,95 134,95 133,96 111,96 135,96 136,95 142,95 142,94" stroke="black" stroke-width="1" /><polyline fill="none" points="109,91 111,91" stroke="black" stroke-width="1" /><polyline fill="none" points="393,69 393,78 392,79 392,83 391,84 391,86 390,87 390,89 389,90 389,91 388,92 388,93 383,98 382,98 380,100 379,100 378,101 377,101 376,102 373,102 372,103 368,103 367,104 361,104 369,104 370,105 373,105 374,106 376,106 377,107 378,107 379,108 380,108 381,109 382,109 387,114 387,115 389,117 389,118 390,119 390,121 391,122 391,124 392,125 392,128 393,129 393,141 393,129 394,128 394,125 395,124 395,122 396,121 396,119 397,118 397,117 399,115 399,114 402,111 403,111 405,109 406,109 408,107 410,107 411,106 412,106 413,105 416,105 417,104 425,104 420,104 419,103 413,103 412,102 410,102 409,101 408,101 407,100 406,100 404,98 403,98 399,94 399,93 397,91 397,90 396,89 396,87 395,86 395,84 394,83 394,78 393,77" stroke="black" stroke-width="1" /><polyline fill="none" points="264,46 262,48 261,48 260,49 259,49 257,51 256,51 255,52 254,52 253,53 252,53 251,54 250,54 249,55 248,55 247,56 246,56 244,58 243,58 242,59 241,59 240,60 239,60 238,61 236,61 235,62 234,62 233,63 232,63 231,64 230,64 229,65 228,65 227,66 226,66 225,67 223,67 222,68 221,68 220,69 219,69 218,70 216,70 215,71 213,71 212,72 211,72 210,73 208,73 207,74 205,74 204,75 203,75 202,76 200,76 199,77 197,77 196,78 194,78 193,79 191,79 190,80 187,80 186,81 184,81 183,82 181,82 180,83 177,83 176,84 174,84 173,85 170,85 169,86 166,86 165,87 161,87 160,88 156,88 155,89 150,89 149,90 144,90 143,91 136,91 135,92 113,92 118,92 119,93 123,93 124,92 125,93 127,93 128,92 137,92 138,91 147,91 148,90 150,90 151,91 152,90 154,90 155,89 159,89 160,88 162,88 163,89 164,89 163,88 164,87 166,87 167,88 168,88 170,86 171,87 172,87 173,86 176,86 177,85 179,85 179,84 180,83 182,83 183,82 186,82 187,81 188,82 189,82 191,80 192,81 193,81 194,82 193,83 191,83 190,84 189,84 188,85 186,85 185,86 182,86 181,87 178,87 177,88 174,88 173,89 170,89 169,90 166,90 165,91 160,91 159,92 155,92 154,93 151,93 150,94 144,94 150,94 151,93 156,93 157,92 161,92 162,91 165,91 166,90 170,90 171,89 174,89 175,88 179,88 180,87 182,87 183,86 185,86 186,85 189,85 190,84 192,84 193,83 195,83 196,82 198,82 199,81 201,81 202,80 204,80 205,79 207,79 208,78 209,78 210,77 212,77 213,76 215,76 216,75 217,75 218,74 220,74 221,73 222,73 223,72 225,72 226,71 227,71 228,70 229,70 230,69 231,69 232,68 233,68 234,67 236,67 237,66 238,66 239,65 240,65 241,64 242,64 243,63 244,63 245,62 246,62 247,61 248,61 249,60 250,60 251,59 250,60 249,60 248,61 247,61 246,62 245,62 244,63 243,63 242,64 240,64 239,65 238,65 237,66 236,66 235,67 234,67 233,68 232,68 231,69 230,69 229,70 227,70 226,71 225,71 224,72 223,71 221,73 220,73 219,74 218,73 218,72 219,71 220,71 223,68 224,68 225,69 224,68 225,67 227,67 228,66 229,66 230,65 231,65 232,64 233,64 234,63 235,64 235,63 236,62 237,62 238,61 239,61 241,59 242,59 243,58 244,58 245,57 246,57 248,55 250,55 252,53 253,53 254,52 255,52 256,51 257,51 259,49 260,49 261,48 262,48" stroke="black" stroke-width="1" /><polyline fill="none" points="276,36 269,43 268,43 266,45 268,43 269,43" stroke="black" stroke-width="1" /><polyline fill="none" points="563,20 563,28 562,29 562,32 561,33 561,34 560,35 560,36 556,40 555,40 554,41 553,41 552,42 548,42 547,43 543,43 551,43 552,44 553,44 554,45 555,45 556,46 557,46 559,48 559,49 560,50 560,51 561,52 561,53 562,54 562,57 563,58 563,67 563,58 564,57 564,53 565,52 565,51 566,50 566,49 569,46 570,46 571,45 572,45 573,44 574,44 575,43 582,43 580,43 579,42 575,42 574,41 572,41 570,39 569,39 566,36 566,35 565,34 565,33 564,32 564,29 563,28" stroke="black" stroke-width="1" /><polyline fill="none" points="674,19 675,20" stroke="black" stroke-width="1" /></svg>